<svg width="24" height="24" viewBox="0 0 24 24" fill="none" xmlns="http://www.w3.org/2000/svg">
<g clip-path="url(#clip0_1768_568)">
<path d="M8.35909 0.789921C5.96112 1.6218 3.89311 3.20073 2.45882 5.2948C1.02454 7.38887 0.299573 9.88769 0.390418 12.4242C0.481264 14.9608 1.38313 17.4013 2.96355 19.3874C4.54396 21.3735 6.71962 22.8005 9.17096 23.4587C11.1583 23.9715 13.2405 23.994 15.2385 23.5243C17.0484 23.1177 18.7218 22.2481 20.0947 21.0005C21.5236 19.6624 22.5608 17.9602 23.0947 16.0768C23.6751 14.0287 23.7783 11.8748 23.3966 9.78055H12.2366V14.4099H18.6997C18.5705 15.1483 18.2937 15.853 17.8859 16.4819C17.478 17.1107 16.9474 17.6509 16.326 18.0699C15.5367 18.592 14.6471 18.9432 13.7141 19.1012C12.7784 19.2752 11.8186 19.2752 10.8828 19.1012C9.93444 18.9051 9.03727 18.5137 8.24846 17.9518C6.98124 17.0548 6.02973 15.7804 5.52971 14.3105C5.02124 12.8132 5.02124 11.1898 5.52971 9.69242C5.88564 8.64283 6.47403 7.68717 7.25096 6.8968C8.14007 5.9757 9.26571 5.31729 10.5044 4.99381C11.7431 4.67034 13.0469 4.69429 14.2728 5.06305C15.2305 5.35703 16.1063 5.87068 16.8303 6.56305C17.5591 5.83805 18.2866 5.11117 19.0128 4.38242C19.3878 3.99055 19.7966 3.61742 20.166 3.21617C19.0608 2.18769 17.7635 1.3874 16.3485 0.861171C13.7717 -0.0744733 10.9522 -0.0996178 8.35909 0.789921Z" fill="white"/>
<path d="M8.35875 0.790832C10.9516 -0.0993112 13.7711 -0.0748285 16.3481 0.860207C17.7634 1.39001 19.0601 2.19415 20.1638 3.22646C19.7888 3.62771 19.3931 4.00271 19.0106 4.39271C18.2831 5.11896 17.5562 5.84271 16.83 6.56396C16.106 5.87159 15.2302 5.35794 14.2725 5.06396C13.047 4.69391 11.7432 4.66857 10.5042 4.99072C9.26516 5.31288 8.13883 5.97007 7.24875 6.89021C6.47181 7.68059 5.88342 8.63624 5.5275 9.68583L1.64062 6.67646C3.03189 3.91751 5.44078 1.80713 8.35875 0.790832Z" fill="#E33629"/>
<path d="M0.611401 9.65703C0.820316 8.62164 1.16716 7.61896 1.64265 6.67578L5.52953 9.69266C5.02105 11.19 5.02105 12.8134 5.52953 14.3108C4.23453 15.3108 2.9389 16.3158 1.64265 17.3258C0.452308 14.9564 0.0892746 12.2567 0.611401 9.65703Z" fill="#F8BD00"/>
<path d="M12.2391 9.77734H23.3991C23.7809 11.8716 23.6776 14.0255 23.0972 16.0736C22.5633 17.957 21.5261 19.6592 20.0972 20.9973C18.8429 20.0186 17.5829 19.0473 16.3285 18.0686C16.9504 17.6491 17.4812 17.1084 17.8891 16.4788C18.297 15.8493 18.5735 15.1439 18.7022 14.4048H12.2391C12.2372 12.8636 12.2391 11.3205 12.2391 9.77734Z" fill="#587DBD"/>
<path d="M1.64062 17.3236C2.93688 16.3236 4.2325 15.3186 5.5275 14.3086C6.02851 15.779 6.98138 17.0534 8.25 17.9498C9.04126 18.5091 9.94037 18.8973 10.89 19.0898C11.8257 19.2638 12.7855 19.2638 13.7213 19.0898C14.6542 18.9319 15.5439 18.5806 16.3331 18.0586C17.5875 19.0373 18.8475 20.0086 20.1019 20.9873C18.7292 22.2356 17.0558 23.1059 15.2456 23.513C13.2476 23.9827 11.1655 23.9601 9.17813 23.4473C7.60632 23.0277 6.13814 22.2878 4.86563 21.2742C3.51874 20.2049 2.41867 18.8573 1.64062 17.3236Z" fill="#319F43"/>
</g>
<defs>
<clipPath id="clip0_1768_568">
<rect width="24" height="24" fill="white"/>
</clipPath>
</defs>
</svg>
