<svg width="111" height="30" viewBox="0 0 111 30" fill="none" xmlns="http://www.w3.org/2000/svg">
<g clip-path="url(#clip0_1838_570)">
<path d="M105.062 14.2806L110.999 30C109.249 29.7497 107.5 29.4367 105.719 29.1555L102.374 20.4686L98.9372 28.4375C97.2501 28.1563 95.5929 28.0617 93.9058 27.8433L99.9373 14.0932L94.4682 0H99.5314L102.594 7.87422L105.875 0H110.999L105.062 14.2806ZM90.4687 0H85.875V27.25C87.3747 27.3437 88.9372 27.4056 90.4687 27.593V0ZM81.9056 26.9369C77.7187 26.6557 73.5309 26.4064 69.2502 26.3117V0H73.9367V21.8746C76.6249 21.9374 79.3121 22.1558 81.9056 22.2804V26.9369ZM64.2498 10.6561V15.3435H57.8443V25.9996H53.2188V0H66.3437V4.68741H57.8443V10.6561H64.2498Z" fill="white"/>
<path d="M11 0H15.5V19C15.5 21.2005 15.4677 23.0386 14.5 24.5C13.8637 26.0063 12.5134 27.1007 11.3844 27.8605C10.2643 28.6202 8.97399 29 7.51343 29C6.05287 29 4.75358 28.6202 3.61559 27.8605C2.48655 27.1007 1.59946 25.9677 0.954303 24.4614C0.3181 22.9551 0 21.1016 0 18.9011V0H4.5V18.9011C4.5 20 4.39485 21.5789 4.5 22C4.75249 23.0111 5.55433 23.6618 6 24C6.44567 24.3382 6.85201 24.4032 7.5 24.5C8.23476 24.5 8.9893 24.3798 9.5 24C10.1724 23.7348 10.8188 23.0229 10.9023 22C10.9023 21.4552 10.9023 20.2836 10.9023 19L11 0Z" fill="white"/>
<path d="M24.7814 27.2153V10.82L29.9994 27C29.9994 27 32.811 26.6567 34.4994 26.5L35.1421 -0.148438H30.5627V14.8831L24.7814 -0.148438H20.3789L20.4994 27.5C22.0969 27.3736 23.091 27.3389 24.7814 27.2153Z" fill="white"/>
<path d="M45.5938 0H41.0001V26.3125C42.5316 26.125 44 26 45.5 26L45.5938 0Z" fill="white"/>
<rect x="40.998" y="26.1328" width="4.5" height="0.2" transform="rotate(-2.2 40.998 26.1328)" fill="white"/>
</g>
<defs>
<clipPath id="clip0_1838_570">
<rect width="111" height="30" fill="white"/>
</clipPath>
</defs>
</svg>
