<svg width="48" height="48" viewBox="0 0 48 48" fill="none" xmlns="http://www.w3.org/2000/svg">
<g clip-path="url(#clip0_1820_566)">
<rect width="48" height="48" rx="7" fill="#1A98FF"/>
<path d="M43.9821 17.9103C45.1955 18.4977 46.2105 19.3747 46.9183 20.4471C47.6261 21.5195 48 22.7471 48 23.9982C48 25.2494 47.6261 26.4769 46.9183 27.5493C46.2105 28.6218 45.1955 29.4987 43.9821 30.0861L10.5 47.4982C5.28804 50.081 -0.5 45.8087 -0.5 40.4982V7.15596C-0.5 1.84312 5.28804 -1.58042 10.5 0.997806L43.9821 17.9103Z" fill="black"/>
<path d="M23.76 39.6C21.9467 39.6 20.3733 39.32 19.04 38.76C17.7067 38.2 16.6133 37.44 15.76 36.48C14.9067 35.4933 14.2667 34.3333 13.84 33C13.44 31.6667 13.24 30.2267 13.24 28.68V11.28H17.12V28.24C17.12 31.0133 17.7333 33.0267 18.96 34.28C20.1867 35.5333 21.7867 36.16 23.76 36.16C24.7467 36.16 25.64 36.0133 26.44 35.72C27.2667 35.4 27.9733 34.92 28.56 34.28C29.1467 33.64 29.6 32.8267 29.92 31.84C30.24 30.8267 30.4 29.6267 30.4 28.24V11.28H34.28V28.68C34.28 30.2267 34.0667 31.6667 33.64 33C33.24 34.3333 32.6 35.4933 31.72 36.48C30.8667 37.44 29.7733 38.2 28.44 38.76C27.1333 39.32 25.5733 39.6 23.76 39.6Z" fill="white"/>
</g>
<defs>
<clipPath id="clip0_1820_566">
<rect width="48" height="48" rx="7" fill="white"/>
</clipPath>
</defs>
</svg>
